<?xml version="1.0" encoding="UTF-8"?>
<svg width="320" height="600" viewBox="0 0 320 600" fill="none" xmlns="http://www.w3.org/2000/svg">
  <path d="M160 0C71.6348 0 0 71.6348 0 160C0 248.365 71.6348 320 160 320C248.365 320 320 248.365 320 160C320 71.6348 248.365 0 160 0ZM160 288C89.3072 288 32 230.693 32 160C32 89.3072 89.3072 32 160 32C230.693 32 288 89.3072 288 160C288 230.693 230.693 288 160 288Z" fill="#22C55E"/>
  <path d="M160 64C107.065 64 64 107.065 64 160C64 212.935 107.065 256 160 256C212.935 256 256 212.935 256 160C256 107.065 212.935 64 160 64ZM160 224C125.49 224 96 194.51 96 160C96 125.49 125.49 96 160 96C194.51 96 224 125.49 224 160C224 194.51 194.51 224 160 224Z" fill="#22C55E"/>
</svg> 